<?xml version="1.0" encoding="UTF-8"?>
<svg version="1.1" xmlns="http://www.w3.org/2000/svg" width="512" height="512">
<path d="M0 0 C3.17817392 2.06297144 6.1816576 4.3201778 9.1875 6.625 C10.86657684 7.88753129 12.54626819 9.14924574 14.2265625 10.41015625 C15.04157227 11.0252002 15.85658203 11.64024414 16.69628906 12.27392578 C19.78346137 14.58701482 22.91435195 16.83347178 26.0625 19.0625 C31.30849205 22.78945058 36.53478804 26.54258147 41.75 30.3125 C42.88707397 31.13439819 42.88707397 31.13439819 44.04711914 31.97290039 C45.59333097 33.09072453 47.13947313 34.20864504 48.68554688 35.32666016 C52.45593019 38.05263139 56.22803694 40.77621534 60 43.5 C61.50000859 44.58332144 63.00000858 45.66665479 64.5 46.75 C65.61375 47.554375 65.61375 47.554375 66.75 48.375 C109.5 79.25 109.5 79.25 111.75097656 80.87573242 C113.24768701 81.95667191 114.74443168 83.03756401 116.24121094 84.1184082 C120.04182637 86.8629754 123.84180298 89.60841966 127.640625 92.35546875 C134.41540742 97.25345334 141.19258102 102.14744088 148 107 C155.58659358 112.40798119 163.13590141 117.86727127 170.68554688 123.32666016 C173.70988581 125.51324445 176.73533712 127.69828591 179.76098633 129.88305664 C181.25059568 130.9588044 182.74001707 132.03481247 184.22924805 133.11108398 C188.0879883 135.89947366 191.94973864 138.68354891 195.81640625 141.4609375 C232.44935249 167.79016687 232.44935249 167.79016687 237.56723142 191.35184276 C238.35843676 196.19331285 238.28139784 201.02923265 238.26742554 205.92408752 C238.27195665 207.09811235 238.27648776 208.27213717 238.28115618 209.48173851 C238.29157971 212.71825425 238.29313408 215.95462921 238.29076743 219.19115627 C238.2903575 222.69017728 238.3014148 226.18916574 238.31088257 229.68817139 C238.32745288 236.53367902 238.33299023 243.3791522 238.33410732 250.22467823 C238.33505927 255.78933144 238.33917686 261.35397334 238.34550858 266.91862297 C238.36310677 282.70680073 238.37234917 298.49495136 238.37084763 314.283139 C238.37076772 315.13321631 238.3706878 315.98329363 238.37060547 316.85913086 C238.37052371 317.7102493 238.37044195 318.56136774 238.37035771 319.43827765 C238.36954424 333.24161504 238.38870089 347.04484345 238.4168822 360.84814931 C238.44561224 375.03239629 238.45942257 389.21659011 238.45769465 403.40086693 C238.457031 411.35996384 238.46251287 419.31894637 238.48405075 427.27801704 C238.50226369 434.05150811 238.50660868 440.82483288 238.4930319 447.59833784 C238.48650398 451.05258745 238.48637847 454.50651801 238.5037384 457.96073723 C238.51914589 461.70840927 238.50991114 465.45524248 238.49447632 469.20289612 C238.50990701 470.83378665 238.50990701 470.83378665 238.52564943 472.49762446 C238.45660761 480.08004563 237.16780622 485.38504817 232.03515625 491.2421875 C231.38417969 491.78101563 230.73320312 492.31984375 230.0625 492.875 C229.41410156 493.42929687 228.76570313 493.98359375 228.09765625 494.5546875 C223.440023 497.76385753 219.45666711 498.25260137 213.85357666 498.26742554 C212.79088645 498.27422221 212.79088645 498.27422221 211.70672774 498.28115618 C209.33859808 498.29379153 206.97069866 498.29218038 204.60253906 498.29052734 C202.9021373 498.29651322 201.20173825 498.30331891 199.50134277 498.31088257 C194.88546475 498.32854577 190.26966088 498.33323814 185.65375233 498.33451414 C182.76795749 498.33593635 179.88218146 498.34020732 176.9963913 498.34550858 C166.92303776 498.36401135 156.84973715 498.37217906 146.77636719 498.37060547 C137.39634693 498.36940466 128.016557 498.39049445 118.63659501 498.4220928 C110.57611202 498.44827553 102.51570415 498.45897189 94.45517898 498.45769465 C89.64431522 498.45718552 84.83365607 498.46284157 80.02283478 498.48405075 C75.49521275 498.50346627 70.96798979 498.50353502 66.44035339 498.48901749 C64.78318954 498.48693225 63.1260005 498.49161324 61.4688797 498.5037384 C43.18237118 498.6288214 43.18237118 498.6288214 35.87890625 492.10546875 C35.44449219 491.47253906 35.01007813 490.83960938 34.5625 490.1875 C33.88380859 489.24970703 33.88380859 489.24970703 33.19140625 488.29296875 C29.76861036 481.70548945 29.71474126 475.38540987 29.74462891 468.11450195 C29.73919823 466.50328209 29.73919823 466.50328209 29.73365784 464.85951233 C29.72678251 462.5345933 29.72425489 460.20965819 29.72560501 457.88472939 C29.72657339 454.19682107 29.71358972 450.50920173 29.69662476 446.82133484 C29.65045411 436.33835086 29.62576087 425.85539666 29.61914062 415.37231445 C29.61410888 408.95152229 29.58977342 402.53103179 29.55381393 396.11034203 C29.54405382 393.67249556 29.54166314 391.2346074 29.54698563 388.79674721 C29.55410461 385.3749969 29.53667332 381.95413703 29.51416016 378.5324707 C29.52233261 377.53932861 29.53050507 376.54618652 29.53892517 375.52294922 C29.39272841 362.93900834 24.80700751 352.7486844 16.6875 343.3125 C4.94104831 333.20508808 -6.60692927 329.71200583 -21.92480469 330.76806641 C-29.83103756 331.6517042 -36.60410691 335.48180029 -43 340 C-43.86625 340.5775 -44.7325 341.155 -45.625 341.75 C-52.45290639 348.2185429 -58.56639101 358.6334589 -59.13028526 368.2134037 C-59.13284136 369.02265486 -59.13539745 369.83190601 -59.13803101 370.66567993 C-59.14348434 371.59911224 -59.14893768 372.53254456 -59.15455627 373.4942627 C-59.1555986 374.51145386 -59.15664093 375.52864502 -59.15771484 376.57666016 C-59.16279556 377.65358124 -59.16787628 378.73050232 -59.17311096 379.84005737 C-59.18381257 382.17976696 -59.19243357 384.51948678 -59.19923019 386.85921097 C-59.21102726 390.56727677 -59.2304838 394.27522653 -59.25234985 397.98324585 C-59.31392883 408.52672147 -59.36794925 419.0701691 -59.40136719 429.61376953 C-59.42235967 436.06348912 -59.45770283 442.51299801 -59.50212479 448.96259689 C-59.51625152 451.416045 -59.52499968 453.8695304 -59.52817917 456.32301712 C-59.53310999 459.76455842 -59.55632584 463.20554487 -59.58349609 466.64697266 C-59.57898689 468.15454132 -59.57898689 468.15454132 -59.5743866 469.69256592 C-59.66260248 477.25014069 -60.85868327 484.14562989 -64.5625 490.8125 C-73.29738113 498.65149588 -82.69651826 498.71770173 -93.79736328 498.63110352 C-95.48042554 498.63624954 -97.1634824 498.64353595 -98.8465271 498.65278625 C-103.3919868 498.67121881 -107.93685602 498.65841466 -112.48229074 498.63869596 C-117.25112946 498.62224593 -122.01993264 498.63113091 -126.78878784 498.63621521 C-134.79304378 498.64072821 -142.79706542 498.62491347 -150.80126953 498.59692383 C-160.0434154 498.56485363 -169.28513935 498.56489876 -178.52731526 498.5821386 C-187.4366178 498.59802235 -196.34576627 498.59125964 -205.2550621 498.57420158 C-209.03878783 498.56734522 -212.82238952 498.56834891 -216.60611343 498.57574654 C-221.0632702 498.58342873 -225.51994876 498.57122043 -229.97702408 498.54389763 C-231.6087909 498.53703378 -233.24060256 498.53689431 -234.87236786 498.54411316 C-251.6580001 498.60979528 -251.6580001 498.60979528 -259.0234375 492.25390625 C-259.46945312 491.69574219 -259.91546875 491.13757813 -260.375 490.5625 C-260.83648437 490.00691406 -261.29796875 489.45132812 -261.7734375 488.87890625 C-264.30123363 485.006709 -265.2498764 481.51805152 -265.25447559 476.92047787 C-265.26030779 475.91470509 -265.26613998 474.9089323 -265.27214891 473.87268156 C-265.26836958 472.77483809 -265.26459026 471.67699463 -265.26069641 470.54588318 C-265.26452196 469.37401476 -265.26834751 468.20214635 -265.27228898 466.99476677 C-265.28082292 463.74553085 -265.28038498 460.49643922 -265.27610838 457.24719942 C-265.27364254 453.74121876 -265.28265381 450.23526474 -265.29014587 446.72929382 C-265.30290107 439.86050148 -265.30468536 432.99174821 -265.30234561 426.12294602 C-265.3005624 420.53677895 -265.30231218 414.95062374 -265.30657005 409.36445808 C-265.30716524 408.56929617 -265.30776043 407.77413426 -265.30837366 406.95487653 C-265.30958543 405.33941697 -265.31079956 403.72395742 -265.31201603 402.10849787 C-265.32289575 386.95339929 -265.32072765 371.79832295 -265.31463119 356.64322311 C-265.30946757 342.79385345 -265.32070202 328.94455424 -265.33972941 315.0951985 C-265.35912841 300.86585946 -265.36735981 286.6365537 -265.36360615 272.40720135 C-265.36169648 264.42223072 -265.36415841 256.43731997 -265.37832069 248.45236015 C-265.39026213 241.65072523 -265.3916089 234.84918699 -265.37953053 228.04755067 C-265.37365975 224.58073528 -265.37249187 221.1140965 -265.38453293 217.64729309 C-265.39501904 213.87903389 -265.38688385 210.11124493 -265.3742218 206.34300232 C-265.38159609 205.26077391 -265.38897037 204.17854549 -265.39656812 203.06352228 C-265.28130839 186.68547921 -259.50777613 172.96257459 -248.16796875 161.12890625 C-242.25757951 155.32501051 -235.75205295 150.5975011 -228.99609375 145.828125 C-224.72468498 142.81251253 -220.48610225 139.75243109 -216.25 136.6875 C-214.71354818 135.57681391 -213.17708979 134.46613691 -211.640625 133.35546875 C-210.87298828 132.80036621 -210.10535156 132.24526367 -209.31445312 131.67333984 C-205.54406981 128.94736861 -201.77196306 126.22378466 -198 123.5 C-196.49999141 122.41667856 -194.99999142 121.33334521 -193.5 120.25 C-178.5 109.41666667 -163.5 98.58333333 -148.5 87.75 C-147.75717773 87.2135083 -147.01435547 86.6770166 -146.24902344 86.12426758 C-144.75231299 85.04332809 -143.25556832 83.96243599 -141.75878906 82.8815918 C-137.95817363 80.1370246 -134.15819702 77.39158034 -130.359375 74.64453125 C-123.02666167 69.34317769 -115.68638156 64.05344563 -108.31835938 58.80126953 C-101.29435105 53.7901413 -94.30621493 48.72930529 -87.31445312 43.67333984 C-83.54406981 40.94736861 -79.77196306 38.22378466 -76 35.5 C-74.49999141 34.41667856 -72.99999142 33.33334521 -71.5 32.25 C-68.5 30.08333333 -65.5 27.91666667 -62.5 25.75 C-61.75661377 25.21310547 -61.01322754 24.67621094 -60.24731445 24.12304688 C-58.75628346 23.04620016 -57.26523545 21.96937701 -55.77416992 20.89257812 C-51.88679986 18.0851985 -47.99977915 15.27733693 -44.11328125 12.46875 C-43.30955078 11.88802734 -42.50582031 11.30730469 -41.67773438 10.70898438 C-40.15158194 9.60627308 -38.62553265 8.50341901 -37.09960938 7.40039062 C-35.72171585 6.40489123 -34.34316465 5.41030132 -32.96386719 4.41674805 C-31.64950708 3.46855912 -30.33766854 2.51686545 -29.02832031 1.56176758 C-19.11431981 -5.62756708 -10.57241763 -5.65075648 0 0 Z M-15 44 C-17.5001779 45.64742774 -19.78795363 47.33012778 -22.125 49.1875 C-23.5764772 50.30942673 -25.02965609 51.42915476 -26.484375 52.546875 C-27.23267578 53.12373047 -27.98097656 53.70058594 -28.75195312 54.29492188 C-32.23005841 56.9329635 -35.79639614 59.43836989 -39.375 61.9375 C-47.55102669 67.66775485 -55.64900452 73.50095723 -63.73388672 79.35888672 C-67.486448 82.07648173 -71.24343419 84.78794473 -75 87.5 C-76.50002146 88.58330362 -78.00002146 89.66663696 -79.5 90.75 C-82.5 92.91666667 -85.5 95.08333333 -88.5 97.25 C-89.24282227 97.7864917 -89.98564453 98.3229834 -90.75097656 98.87573242 C-92.24768701 99.95667191 -93.74443168 101.03756401 -95.24121094 102.1184082 C-99.04182637 104.8629754 -102.84180298 107.60841966 -106.640625 110.35546875 C-113.97036718 115.65467424 -121.30713176 120.94304209 -128.67285156 126.19213867 C-133.46267563 129.60863252 -138.23253869 133.05238955 -143 136.5 C-148.32236265 140.34888977 -153.65105378 144.18813421 -159 148 C-167.36186803 153.96044254 -175.6792133 159.98241264 -184 166 C-186.32145854 167.67887726 -188.64301201 169.35762121 -190.96508789 171.03564453 C-192.4780031 172.12939218 -193.99022054 173.22410572 -195.50170898 174.31982422 C-199.00240002 176.85391518 -202.51354689 179.36758553 -206.06640625 181.828125 C-206.70094727 182.27067627 -207.33548828 182.71322754 -207.98925781 183.16918945 C-209.6824378 184.34702422 -211.38198071 185.51569762 -213.08203125 186.68359375 C-218.50810951 190.99104276 -221.74742293 195.16347702 -223 202 C-223.26967278 205.48479643 -223.26162252 208.95283033 -223.24050903 212.44664001 C-223.24221788 213.48575974 -223.24392673 214.52487946 -223.24568737 215.59548765 C-223.24897616 219.07015809 -223.23798846 222.54463453 -223.22705078 226.01928711 C-223.22648654 228.51289872 -223.22680349 231.00651066 -223.22793579 233.50012207 C-223.22839092 238.86499961 -223.2227257 244.22981701 -223.21146011 249.59467888 C-223.19518276 257.35128939 -223.18999482 265.1078764 -223.18748413 272.86450214 C-223.18311053 285.45012741 -223.16981053 298.03572671 -223.15087891 310.62133789 C-223.13251143 322.84464388 -223.11838211 335.06794278 -223.10986328 347.29125977 C-223.10932729 348.05281205 -223.10879129 348.81436433 -223.10823905 349.59899396 C-223.10408003 355.55513131 -223.10016625 361.51126882 -223.09632993 367.46740639 C-223.07747406 396.64496144 -223.03723473 425.82245144 -223 455 C-183.07 455 -143.14 455 -102 455 C-101.79029281 426.43076411 -101.79029281 426.43076411 -101.61206055 397.86132812 C-101.56213379 392.28417969 -101.56213379 392.28417969 -101.5349884 389.65759277 C-101.51903942 387.85750141 -101.50861707 386.05735504 -101.50288391 384.25720215 C-101.40236246 356.33991762 -94.89844343 332.09122215 -74.94140625 311.75 C-57.2040516 294.62674536 -33.90920685 287.43383092 -9.765625 287.7890625 C13.34963469 288.54464605 34.66505174 298.95057805 50.65234375 315.51123047 C65.57119537 331.9922372 73.05020277 353.06733918 73.20532227 375.05639648 C73.22037135 376.39580717 73.22037135 376.39580717 73.23572445 377.76227665 C73.26692434 380.6318566 73.2918037 383.50145047 73.31640625 386.37109375 C73.33482679 388.15108674 73.35366437 389.93107547 73.3729248 391.71105957 C73.44116426 398.28648927 73.50135011 404.86200055 73.5625 411.4375 C73.706875 426.143125 73.85125 440.84875 74 456 C113.93 456 153.86 456 195 456 C195.08741054 411.25293814 195.08741054 411.25293814 195.14648438 366.50585938 C195.15235781 360.47094702 195.15841921 354.4360349 195.16479492 348.40112305 C195.16558617 347.64476623 195.16637741 346.88840942 195.16719264 346.10913271 C195.18023338 333.90526823 195.20388087 321.70144624 195.23145839 309.49760694 C195.25953298 296.96911865 195.2761806 284.44065257 195.28226548 271.91213411 C195.28637767 264.18407095 195.29935624 256.45612786 195.3237494 248.72810166 C195.34151201 242.79790123 195.34336043 236.86776212 195.33932304 230.93753433 C195.34014786 228.50795821 195.34610843 226.07837751 195.35761642 223.64882851 C195.37257313 220.32810241 195.36894161 217.00788732 195.36076355 213.68714905 C195.36950207 212.7289547 195.3782406 211.77076036 195.38724393 210.78352982 C195.34215159 203.99516935 194.52665872 197.35108492 190.3359375 191.79296875 C183.98869187 186.59631944 177.32868849 181.88038802 170.59375 177.203125 C166.04441911 174.04257795 161.54784605 170.81300602 157.0625 167.5625 C156.31613281 167.02206055 155.56976563 166.48162109 154.80078125 165.92480469 C153.28760576 164.82898957 151.77458493 163.73296085 150.26171875 162.63671875 C148.02060267 161.01490936 145.77648685 159.39734868 143.53125 157.78125 C135.73761075 152.1692164 127.97400794 146.52007023 120.25 140.8125 C113.73277127 135.99713071 107.17886685 131.24135527 100.57421875 126.546875 C94.12474489 121.96009787 87.72292607 117.30666647 81.31005859 112.66894531 C79.04819171 111.03481701 76.78423692 109.4036287 74.51953125 107.7734375 C66.01007941 101.64502803 57.54260315 95.46380502 49.10791016 89.23291016 C41.5233116 83.63567826 33.8841167 78.11591373 26.23388672 72.60888672 C23.23667702 70.45024061 20.242418 68.28752456 17.24853516 66.12426758 C15.76037392 65.04926902 14.27177344 63.97487825 12.78271484 62.90112305 C8.83726898 60.05529157 4.89997509 57.1989323 0.97265625 54.328125 C0.15087891 53.72935547 -0.67089844 53.13058594 -1.51757812 52.51367188 C-3.09798572 51.36184939 -4.67621427 50.20702943 -6.25195312 49.04882812 C-6.96158203 48.53255859 -7.67121094 48.01628906 -8.40234375 47.484375 C-9.02616943 47.02772461 -9.64999512 46.57107422 -10.29272461 46.10058594 C-12.12180665 44.82149327 -12.12180665 44.82149327 -15 44 Z " fill="#000000" transform="translate(270,9)"/>
</svg>
